name analog
datacolumns 19
datarows 46
range 0.7995 0.8220000000000001
endheader
time	ground_force_vx	ground_force_vy	ground_force_vz	ground_force_px	ground_force_py	ground_force_pz	l_ground_force_vx	l_ground_force_vy	l_ground_force_vz	l_ground_force_px	l_ground_force_py	l_ground_force_pz	ground_torque_x	ground_torque_y	ground_torque_z	l_ground_torque_x	l_ground_torque_y	l_ground_torque_z
0.7995	-0.0	-0.0	-0.0	-0.0	-0.0	-0.0	5.675437450408936	5.046597957611084	-778.5919799804688	-0.0	-0.0	-0.0	-0.0	-0.0	-0.0	245067.8125	-26012.251953125	506.1749267578125
0.8	-0.0	-0.0	-0.0	-0.0	-0.0	-0.0	5.949892997741699	5.126819610595703	-778.2342529296875	-0.0	-0.0	-0.0	-0.0	-0.0	-0.0	244604.125	-26113.462890625	537.3897705078125
0.8005	-0.0	-0.0	-0.0	-0.0	-0.0	-0.0	6.036588668823242	4.952369213104248	-777.867919921875	-0.0	-0.0	-0.0	-0.0	-0.0	-0.0	243623.359375	-26166.88671875	511.2627868652344
0.801	-0.0	-0.0	-0.0	-0.0	-0.0	-0.0	6.121044158935547	4.941722869873047	-775.7979736328125	-0.0	-0.0	-0.0	-0.0	-0.0	-0.0	243157.203125	-26338.634765625	481.6744079589844
0.8015	-0.0	-0.0	-0.0	-0.0	-0.0	-0.0	5.952393054962158	4.590544700622559	-775.1338500976562	-0.0	-0.0	-0.0	-0.0	-0.0	-0.0	242192.421875	-26404.83984375	804.12890625
0.802	-0.0	-0.0	-0.0	-0.0	-0.0	-0.0	5.690870761871338	4.071678638458252	-775.0989990234375	-0.0	-0.0	-0.0	-0.0	-0.0	-0.0	241491.734375	-26473.044921875	897.2399291992188
0.8025	-0.0	-0.0	-0.0	-0.0	-0.0	-0.0	5.593294620513916	2.751458168029785	-773.3797607421875	-0.0	-0.0	-0.0	-0.0	-0.0	-0.0	240964.390625	-25975.962890625	863.4241943359375
0.803	-0.0	-0.0	-0.0	-0.0	-0.0	-0.0	4.797267436981201	2.0336837768554688	-774.3641357421875	-0.0	-0.0	-0.0	-0.0	-0.0	-0.0	239962.171875	-26118.236328125	717.4002075195312
0.8035	-0.0	-0.0	-0.0	-0.0	-0.0	-0.0	4.167074203491211	1.5851457118988037	-773.0584716796875	-0.0	-0.0	-0.0	-0.0	-0.0	-0.0	239708.3125	-25984.94140625	624.7511596679688
0.804	-0.0	-0.0	-0.0	-0.0	-0.0	-0.0	3.814563751220703	1.685161590576172	-774.7302856445312	-0.0	-0.0	-0.0	-0.0	-0.0	-0.0	239311.390625	-25829.51171875	536.304443359375
0.8045	-0.0	-0.0	-0.0	-0.0	-0.0	-0.0	4.169406890869141	1.5014686584472656	-774.0502319335938	-0.0	-0.0	-0.0	-0.0	-0.0	-0.0	238534.265625	-25800.65625	653.550537109375
0.805	-0.0	-0.0	-0.0	-0.0	-0.0	-0.0	4.359003067016602	0.9812353849411012	-774.069091796875	-0.0	-0.0	-0.0	-0.0	-0.0	-0.0	238099.25	-25673.69921875	599.886962890625
0.8055	-0.0	-0.0	-0.0	-0.0	-0.0	-0.0	4.075751304626465	0.7114965319633484	-773.3805541992188	-0.0	-0.0	-0.0	-0.0	-0.0	-0.0	237570.921875	-25288.693359375	537.0321044921875
0.806	-0.0	-0.0	-0.0	-0.0	-0.0	-0.0	3.8120639324188232	-0.093299388885498	-772.3233642578125	-0.0	-0.0	-0.0	-0.0	-0.0	-0.0	236701.5	-24779.9765625	534.9683227539062
0.8065	-0.0	-0.0	-0.0	-0.0	-0.0	-0.0	3.639679431915283	-1.6680073738098145	-772.3233642578125	-0.0	-0.0	-0.0	-0.0	-0.0	-0.0	236454.765625	-24726.31640625	391.1911926269531
0.807	-0.0	-0.0	-0.0	-0.0	-0.0	-0.0	3.814563751220703	-1.852191925048828	-773.00146484375	-0.0	-0.0	-0.0	-0.0	-0.0	-0.0	235741.15625	-24144.78515625	476.8670959472656
0.8075	-0.0	-0.0	-0.0	-0.0	-0.0	-0.0	3.814563751220703	-3.2575392723083496	-772.3233642578125	-0.0	-0.0	-0.0	-0.0	-0.0	-0.0	234892.25	-24079.998046875	505.3039855957031
0.808	-0.0	-0.0	-0.0	-0.0	-0.0	-0.0	3.809284448623657	-3.704254627227783	-770.2181396484375	-0.0	-0.0	-0.0	-0.0	-0.0	-0.0	233812.828125	-23670.10546875	682.2757568359375
0.8085	-0.0	-0.0	-0.0	-0.0	-0.0	-0.0	3.457043409347534	-4.77736759185791	-771.2021484375	-0.0	-0.0	-0.0	-0.0	-0.0	-0.0	233459.078125	-22999.9453125	359.8993530273437
0.809	-0.0	-0.0	-0.0	-0.0	-0.0	-0.0	2.497408151626587	-5.561576843261719	-770.207275390625	-0.0	-0.0	-0.0	-0.0	-0.0	-0.0	232325.515625	-22764.19140625	240.3856506347656
0.8095	-0.0	-0.0	-0.0	-0.0	-0.0	-0.0	2.395191192626953	-6.06147575378418	-768.4718627929688	-0.0	-0.0	-0.0	-0.0	-0.0	-0.0	232075.828125	-22301.361328125	149.39984130859375
0.81	-0.0	-0.0	-0.0	-0.0	-0.0	-0.0	2.481125831604004	-6.2653117179870605	-766.8134155273438	-0.0	-0.0	-0.0	-0.0	-0.0	-0.0	231291.6875	-21840.7578125	294.9568786621094
0.8105	-0.0	-0.0	-0.0	-0.0	-0.0	-0.0	2.2205731868743896	-6.458648681640625	-768.4385375976562	-0.0	-0.0	-0.0	-0.0	-0.0	-0.0	230509.234375	-21836.45703125	327.18072509765625
0.811	-0.0	-0.0	-0.0	-0.0	-0.0	-0.0	2.223451852798462	-7.581521511077881	-766.06103515625	-0.0	-0.0	-0.0	-0.0	-0.0	-0.0	229856.09375	-21724.16015625	500.1441345214844
0.8115	-0.0	-0.0	-0.0	-0.0	-0.0	-0.0	2.3122377395629883	-7.948951721191406	-765.7574462890625	-0.0	-0.0	-0.0	-0.0	-0.0	-0.0	229537.6875	-21150.74609375	534.5407104492188
0.812	-0.0	-0.0	-0.0	-0.0	-0.0	-0.0	2.501340389251709	-9.094240188598633	-767.0631713867188	-0.0	-0.0	-0.0	-0.0	-0.0	-0.0	229267.53125	-21252.5625	565.0294799804688
0.8125	-0.0	-0.0	-0.0	-0.0	-0.0	-0.0	3.004392385482788	-9.450420379638672	-766.74853515625	-0.0	-0.0	-0.0	-0.0	-0.0	-0.0	229150.578125	-20932.08203125	769.0327758789062
0.8130000000000001	-0.0	-0.0	-0.0	-0.0	-0.0	-0.0	2.670266628265381	-9.88312530517578	-767.0743408203125	-0.0	-0.0	-0.0	-0.0	-0.0	-0.0	228985.46875	-20717.810546875	973.3179321289062
0.8135	-0.0	-0.0	-0.0	-0.0	-0.0	-0.0	2.569594144821167	-9.556774139404297	-770.1691284179688	-0.0	-0.0	-0.0	-0.0	-0.0	-0.0	229224.734375	-20431.755859375	744.0291748046875
0.8140000000000001	-0.0	-0.0	-0.0	-0.0	-0.0	-0.0	1.6915968656539917	-10.150928497314451	-773.021728515625	-0.0	-0.0	-0.0	-0.0	-0.0	-0.0	229985.75	-20305.080078125	653.2706909179688
0.8145	-0.0	-0.0	-0.0	-0.0	-0.0	-0.0	2.037264585494995	-10.044113159179688	-775.44140625	-0.0	-0.0	-0.0	-0.0	-0.0	-0.0	230571.03125	-20002.603515625	561.4833984375
0.8150000000000001	-0.0	-0.0	-0.0	-0.0	-0.0	-0.0	1.9672420024871824	-8.822846412658691	-778.16064453125	-0.0	-0.0	-0.0	-0.0	-0.0	-0.0	231094.796875	-19937.501953125	796.956298828125
0.8155	-0.0	-0.0	-0.0	-0.0	-0.0	-0.0	2.6644718647003174	-8.144402503967285	-778.234130859375	-0.0	-0.0	-0.0	-0.0	-0.0	-0.0	231396.671875	-19786.71484375	895.0114135742188
0.8160000000000001	-0.0	-0.0	-0.0	-0.0	-0.0	-0.0	2.835559368133545	-7.687158584594727	-778.9823608398438	-0.0	-0.0	-0.0	-0.0	-0.0	-0.0	231388.421875	-19320.091796875	974.7161254882812
0.8165	-0.0	-0.0	-0.0	-0.0	-0.0	-0.0	1.7935558557510376	-7.497715473175049	-782.7725830078125	-0.0	-0.0	-0.0	-0.0	-0.0	-0.0	231950.921875	-19081.806640625	773.8697509765625
0.8170000000000001	-0.0	-0.0	-0.0	-0.0	-0.0	-0.0	0.7129337191581726	-7.84446382522583	-782.137939453125	-0.0	-0.0	-0.0	-0.0	-0.0	-0.0	232236.015625	-18501.890625	473.13916015625
0.8175	-0.0	-0.0	-0.0	-0.0	-0.0	-0.0	-0.9561089277267456	-6.804040431976318	-784.918701171875	-0.0	-0.0	-0.0	-0.0	-0.0	-0.0	232062.9375	-18126.0390625	116.24795532226562
0.8180000000000001	-0.0	-0.0	-0.0	-0.0	-0.0	-0.0	-1.5114058256149292	-5.84907865524292	-784.543701171875	-0.0	-0.0	-0.0	-0.0	-0.0	-0.0	232071.0	-17801.345703125	-259.5379943847656
0.8185	-0.0	-0.0	-0.0	-0.0	-0.0	-0.0	-1.8629264831542969	-6.00253963470459	-785.8743896484375	-0.0	-0.0	-0.0	-0.0	-0.0	-0.0	231826.328125	-17415.4375	-180.8337860107422
0.8190000000000001	-0.0	-0.0	-0.0	-0.0	-0.0	-0.0	-2.135833501815796	-5.204234600067139	-785.9669799804688	-0.0	-0.0	-0.0	-0.0	-0.0	-0.0	232170.859375	-17423.8671875	-388.473388671875
0.8195	-0.0	-0.0	-0.0	-0.0	-0.0	-0.0	-3.0946028232574463	-4.066207408905029	-788.0621337890625	-0.0	-0.0	-0.0	-0.0	-0.0	-0.0	232888.875	-17075.830078125	-506.3771667480469
0.8200000000000001	-0.0	-0.0	-0.0	-0.0	-0.0	-0.0	-3.630236864089966	-2.772347450256348	-790.4928588867188	-0.0	-0.0	-0.0	-0.0	-0.0	-0.0	233156.734375	-16646.265625	-879.3526611328125
0.8205	-0.0	-0.0	-0.0	-0.0	-0.0	-0.0	-4.33984899520874	-1.8651788234710691	-792.2112426757812	-0.0	-0.0	-0.0	-0.0	-0.0	-0.0	233440.4375	-16506.072265625	-832.9863891601562
0.8210000000000001	-0.0	-0.0	-0.0	-0.0	-0.0	-0.0	-4.360937595367432	-1.056348443031311	-792.6575317382812	-0.0	-0.0	-0.0	-0.0	-0.0	-0.0	234114.296875	-16551.466796875	-779.352783203125
0.8215	-0.0	-0.0	-0.0	-0.0	-0.0	-0.0	-3.463285446166992	0.445157527923584	-795.3533935546875	-0.0	-0.0	-0.0	-0.0	-0.0	-0.0	233914.328125	-16398.7265625	-659.7269287109375
0.8220000000000001	-0.0	-0.0	-0.0	-0.0	-0.0	-0.0	-2.040348052978516	1.14460551738739	-794.7114868164062	-0.0	-0.0	-0.0	-0.0	-0.0	-0.0	234004.5625	-16545.865234375	-185.1504669189453
